<?xml version="1.0" encoding="utf-8"?>
<!-- Generator: Adobe Illustrator 19.2.1, SVG Export Plug-In . SVG Version: 6.00 Build 0)  -->
<svg version="1.1" id="Layer_1" xmlns="http://www.w3.org/2000/svg" xmlns:xlink="http://www.w3.org/1999/xlink" x="0px" y="0px"
	 viewBox="0 0 898.7 379.6" style="enable-background:new 0 0 898.7 379.6;" xml:space="preserve">
<style type="text/css">
	.st0{fill:#FFFFFF;}
</style>
<g>
	<path class="st0" d="M663.2,172.7c0,1,0,2.8-0.1,2.8h0v96.7h-49.5v-13.4c-15.7,8.6-31.9,13.6-50.2,13.6c-19.9,0-39.3-6-55.7-17
		c10.9-12.5,19.5-27.1,24.8-43.1c8.8,6.9,19.7,10.7,30.9,10.7c27.7,0,50.2-22.5,50.2-50.2c0-27.7-22.5-50.1-50.2-50.1
		c-27.7,0-50.2,21.3-50.2,50.5h0c0,54-44.4,99.3-99.4,99.3c-18.3,0-36.4-5-49.9-13.7v104.9h-49.5V170.9c0.8-54.3,44.6-98.2,99-98.2
		c19.3,0,38.1,5.6,54.2,16c-10.9,12.4-19.4,26.9-24.8,43c-8.5-6.2-18.8-9.5-29.5-9.5c-27.7,0-50.2,22.6-50.2,50.3
		c0,27.7,22.5,50.4,50.2,50.4c27.7,0,50.2-22.9,50.2-49.9h0c0-56.2,44.7-100,99.7-100C618.4,73.2,663.2,117.7,663.2,172.7z
		 M242.2,76.5h49.5v195.7h-49.5V76.5z M223,72.9v49.5c-29.2,0-51.7,22.5-51.7,50.2v99.5h-49.5v-99.5
		C121.7,117.7,166.7,72.9,223,72.9z M99,220.5V270c-54,0-99-44.7-99-99.7V24.7h49.5v51.7h42.7v49.5H49.5v44.3
		C49.5,197.9,72,220.5,99,220.5z M859.4,72.9v49.5c-29.2,0-51.7,22.5-51.7,50.2v99.5h-49.5v-99.5C758.2,117.7,803.2,72.9,859.4,72.9
		z M686,76.5h49.5v195.7H686V76.5z M267,0L267,0c13.7,0,24.7,11.1,24.7,24.7v0c0,13.7-11.1,24.7-24.7,24.7h0
		c-13.7,0-24.7-11.1-24.7-24.7v0C242.2,11.1,253.3,0,267,0z M710.7,49.5L710.7,49.5C697,49.5,686,38.4,686,24.7v0
		C686,11.1,697,0,710.7,0h0c13.7,0,24.7,11.1,24.7,24.7v0C735.5,38.4,724.4,49.5,710.7,49.5z M874,272.1L874,272.1
		c-13.7,0-24.7-11.1-24.7-24.7v0c0-13.7,11.1-24.7,24.7-24.7h0c13.7,0,24.7,11.1,24.7,24.7v0C898.7,261.1,887.6,272.1,874,272.1z"/>
	<g>
		<g>
			<path class="st0" d="M417.1,364h-4.9V316c0-0.2,0-0.4,0.1-0.7c0-0.3,0.2-0.6,0.3-0.9c0.2-0.3,0.4-0.5,0.7-0.7
				c0.3-0.2,0.8-0.3,1.3-0.3h27v4.7h-24.5v16.6h23.2v4.7h-23.2V364z"/>
		</g>
		<g>
			<path class="st0" d="M455.7,364h-4.7v-49.2h4.7V364z"/>
		</g>
		<g>
			<path class="st0" d="M473.8,379.6h-5.1l6.8-16.8l-13-31.6h4.9l0,0.1l10.8,26.4l10.6-26.5h4.8l-0.1,0.2L473.8,379.6z"/>
		</g>
		<g>
			<path class="st0" d="M532,364.5c-2.4,0-4.6-0.4-6.6-1.3s-3.8-2.1-5.4-3.6c-1.5-1.5-2.7-3.3-3.6-5.4c-0.9-2.1-1.3-4.3-1.3-6.7
				c0-2.4,0.4-4.7,1.3-6.7c0.9-2.1,2.1-3.9,3.6-5.4c1.5-1.5,3.3-2.8,5.4-3.6c2.1-0.9,4.3-1.3,6.7-1.3c3,0,5.8,0.7,8.4,2.2
				c2.6,1.4,4.7,3.5,6.2,6c0.5,0.8,0.9,1.6,1.2,2.4c0.3,0.8,0.6,1.6,0.8,2.5c0.2,0.9,0.3,1.9,0.4,2.9c0.1,1.1,0.1,2.3,0.1,3.7V364
				h-4.7v-5.7C541.4,362.4,537.2,364.5,532,364.5z M532.3,334.9c-1.7,0-3.3,0.3-4.9,1c-1.5,0.6-2.9,1.6-4,2.7c-1.1,1.2-2,2.5-2.7,4
				c-0.6,1.5-1,3.2-1,4.9c0,1.7,0.3,3.3,1,4.9c0.6,1.5,1.5,2.9,2.7,4c1.1,1.1,2.5,2,4,2.7c1.5,0.6,3.1,1,4.8,1c1.7,0,3.3-0.3,4.8-1
				c1.5-0.6,2.8-1.5,3.9-2.6c1.1-1.1,2-2.4,2.6-3.9c0.6-1.5,1-3.1,1-4.7c0-1.8-0.3-3.5-0.9-5.1l0,0c-0.6-1.6-1.5-2.9-2.6-4.1
				c-1.1-1.1-2.4-2-3.9-2.7C535.5,335.3,533.9,334.9,532.3,334.9z"/>
		</g>
		<g>
			<path class="st0" d="M586.2,363.9h-4.5v-16.4c0-2.1-0.1-3.8-0.4-5c-0.3-1.2-0.7-2.3-1.3-3.3c-0.8-1.3-1.9-2.4-3.3-3.2
				c-1.4-0.8-2.9-1.2-4.6-1.2c-1.7,0-3.3,0.4-4.7,1.2c-1.4,0.8-2.5,2-3.3,3.4c-0.5,0.9-0.9,1.9-1.1,2.8c-0.2,0.9-0.3,2.2-0.3,3.8v18
				h-4.7v-32.8h4.7v3.7c1.2-1.3,2.6-2.4,4.3-3.1c1.8-0.8,3.6-1.3,5.1-1.3c2.5,0,4.8,0.6,7,1.8c2.2,1.2,3.9,2.8,5.1,4.8
				c0.8,1.3,1.3,2.7,1.6,4.3c0.3,1.6,0.5,3.5,0.5,5.8V363.9z"/>
		</g>
		<g>
			<path class="st0" d="M602.1,379.6H597l6.8-16.8l-13-31.6h4.9l0,0.1l10.8,26.4l10.6-26.5h4.8l-0.1,0.2L602.1,379.6z"/>
		</g>
		<g>
			<path class="st0" d="M662.7,364.8c-4.1,0-7.6-1.9-10.3-5.7c-1.1,1.8-2.6,3.1-4.3,4.1c-1.8,1-3.9,1.5-6.1,1.5
				c-1.9,0-3.8-0.4-5.5-1.3c-1.7-0.9-3.2-2.1-4.3-3.6c-0.5-0.7-0.9-1.3-1.3-2c-0.4-0.7-0.6-1.5-0.8-2.3c-0.2-0.8-0.3-1.7-0.4-2.7
				c-0.1-1-0.1-2.1-0.1-3.4v-18.3h4.7v17.4c0,1.4,0.1,2.7,0.3,4.1c0.2,1.4,0.6,2.6,1.1,3.8c0.5,1.1,1.4,2,2.4,2.7
				c1,0.7,2.4,1.1,4.1,1.1c1.3,0,2.5-0.3,3.6-0.9c1.1-0.6,2-1.4,2.6-2.4c0.6-0.9,1.1-2,1.3-3.2c0.2-1.2,0.4-2.7,0.4-4.5v-18.1h4.7
				v17.9c0,1.6,0.1,3,0.3,4.2c0.2,1.2,0.5,2.2,1,3.1c0.6,1.2,1.6,2.1,2.7,2.8c1.2,0.7,2.5,1,3.9,1c1.5,0,2.9-0.4,4.2-1.3
				c1.3-0.9,2.2-2,2.7-3.3c0.4-0.9,0.6-1.8,0.8-2.8c0.1-1,0.2-2.3,0.2-3.8v-17.9h4.7V349c0,1.3,0,2.5-0.1,3.5
				c-0.1,1-0.2,1.9-0.4,2.7c-0.2,0.8-0.4,1.6-0.8,2.3c-0.3,0.7-0.7,1.4-1.2,2c-1,1.5-2.5,2.8-4.2,3.7
				C666.7,364.3,664.8,364.8,662.7,364.8z"/>
		</g>
		<g>
			<path class="st0" d="M711.8,363.9h-4.5v-16.4c0-2.1-0.1-3.8-0.4-5c-0.3-1.2-0.7-2.3-1.3-3.3c-0.8-1.3-1.9-2.4-3.3-3.2
				c-1.4-0.8-2.9-1.2-4.6-1.2c-1.7,0-3.3,0.4-4.7,1.2c-1.4,0.8-2.5,2-3.3,3.4c-0.5,0.9-0.9,1.9-1.1,2.8c-0.2,0.9-0.3,2.2-0.3,3.8v18
				h-4.7v-49h4.7v19.9c1.2-1.3,2.6-2.4,4.3-3.1c1.8-0.8,3.6-1.3,5.1-1.3c2.5,0,4.8,0.6,7,1.8c2.2,1.2,3.9,2.8,5.1,4.8
				c0.8,1.3,1.3,2.7,1.6,4.3c0.3,1.6,0.5,3.5,0.5,5.8V363.9z"/>
		</g>
		<g>
			<path class="st0" d="M735.7,364.5c-2.4,0-4.6-0.5-6.8-1.4c-3-1.3-5.4-3.4-7.3-6.2c-1.9-2.8-2.8-5.9-2.8-9.4
				c0-2.4,0.4-4.6,1.3-6.7c0.9-2.1,2.1-3.9,3.6-5.4c1.5-1.5,3.4-2.8,5.4-3.7c2.1-0.9,4.3-1.4,6.7-1.4c2.7,0,5.4,0.6,7.7,1.9
				c2.4,1.2,4.4,3,5.9,5.1c1.4,1.9,2.3,3.9,2.7,5.7c0.4,1.8,0.6,3.9,0.6,6.2l0,0.2h-29.1c0.2,1.4,0.6,2.8,1.3,4.1
				c0.7,1.3,1.6,2.5,2.6,3.4c1.1,1,2.3,1.7,3.7,2.3c1.4,0.6,2.9,0.8,4.5,0.8c1.9,0,3.8-0.4,5.4-1.2c1.7-0.8,3.1-2,4.4-3.7l0.1-0.1
				l0.1,0.1l3.5,2.6l-0.1,0.1c-1.7,2.3-3.8,4-6.1,5.1C740.8,364,738.3,364.5,735.7,364.5z M723.7,345.3h24.1c-0.2-1.4-0.6-2.8-1.3-4
				l0,0c-0.7-1.3-1.6-2.4-2.7-3.4c-1.1-0.9-2.3-1.7-3.7-2.2c-1.4-0.5-2.8-0.8-4.4-0.8s-3,0.3-4.3,0.8c-1.3,0.5-2.6,1.3-3.7,2.2
				c-1.1,0.9-2,2.1-2.7,3.4C724.4,342.5,724,343.9,723.7,345.3z"/>
		</g>
		<g>
			<path class="st0" d="M765.2,364h-4.7v-20c0-4.1,1-7.3,2.9-9.4c1.1-1.2,2.4-2.1,3.9-2.6c1.5-0.5,3.4-0.8,5.7-0.8h1.8v4.3h-1.7
				c-3.2,0-5.3,0.7-6.4,2.2c-1.1,1.5-1.7,3.7-1.7,6.8V364z"/>
		</g>
		<g>
			<path class="st0" d="M794.2,364.5c-2.4,0-4.6-0.5-6.8-1.4c-3-1.3-5.4-3.4-7.3-6.2c-1.9-2.8-2.8-5.9-2.8-9.4
				c0-2.4,0.4-4.6,1.3-6.7c0.9-2.1,2.1-3.9,3.6-5.4c1.5-1.5,3.4-2.8,5.4-3.7c2.1-0.9,4.3-1.4,6.7-1.4c2.7,0,5.4,0.6,7.7,1.9
				c2.4,1.2,4.4,3,5.9,5.1c1.4,1.9,2.3,3.9,2.7,5.7c0.4,1.8,0.6,3.9,0.6,6.2l0,0.2h-29.1c0.2,1.4,0.6,2.8,1.3,4.1
				c0.7,1.3,1.6,2.5,2.6,3.4c1.1,1,2.3,1.7,3.7,2.3c1.4,0.6,2.9,0.8,4.5,0.8c1.9,0,3.8-0.4,5.4-1.2c1.7-0.8,3.1-2,4.4-3.7l0.1-0.1
				l0.1,0.1l3.5,2.6l-0.1,0.1c-1.7,2.3-3.8,4-6.1,5.1C799.4,364,796.9,364.5,794.2,364.5z M782.3,345.3h24.1c-0.2-1.4-0.6-2.8-1.3-4
				l0,0c-0.7-1.3-1.6-2.4-2.7-3.4c-1.1-0.9-2.3-1.7-3.7-2.2c-1.4-0.5-2.8-0.8-4.4-0.8c-1.5,0-3,0.3-4.3,0.8
				c-1.3,0.5-2.6,1.3-3.7,2.2c-1.1,0.9-2,2.1-2.7,3.4C783,342.5,782.5,343.9,782.3,345.3z"/>
		</g>
	</g>
</g>
</svg>
